<mxfile host="app.diagrams.net" modified="2024-03-19T16:02:55.997Z" agent="Mozilla/5.0 (Windows NT 10.0; Win64; x64) AppleWebKit/537.36 (KHTML, like Gecko) Chrome/122.0.0.0 Safari/537.36" etag="TBT1hx_65SpA8fitvEwR" version="24.0.7" type="github">
  <diagram name="Page-1" id="fZQzP1e7L4qmpXXtY60z">
    <mxGraphModel dx="1050" dy="-578" grid="1" gridSize="10" guides="1" tooltips="1" connect="1" arrows="1" fold="1" page="1" pageScale="1" pageWidth="850" pageHeight="1100" math="0" shadow="0">
      <root>
        <mxCell id="0" />
        <mxCell id="1" parent="0" />
        <mxCell id="9U3OsyRfPfuhPDxdt06z-1" value="" style="strokeWidth=1;shadow=0;dashed=0;align=center;html=1;shape=mxgraph.mockup.containers.browserWindow;rSize=0;strokeColor=#666666;strokeColor2=#008cff;strokeColor3=#c4c4c4;mainText=,;recursiveResize=0;" parent="1" vertex="1">
          <mxGeometry x="210" y="1900" width="850" height="1650" as="geometry" />
        </mxCell>
        <mxCell id="9U3OsyRfPfuhPDxdt06z-2" value="Page 1" style="strokeWidth=1;shadow=0;dashed=0;align=center;html=1;shape=mxgraph.mockup.containers.anchor;fontSize=17;fontColor=#666666;align=left;whiteSpace=wrap;" parent="9U3OsyRfPfuhPDxdt06z-1" vertex="1">
          <mxGeometry x="60" y="12" width="110" height="26" as="geometry" />
        </mxCell>
        <mxCell id="9U3OsyRfPfuhPDxdt06z-3" value="https://www.draw.io" style="strokeWidth=1;shadow=0;dashed=0;align=center;html=1;shape=mxgraph.mockup.containers.anchor;rSize=0;fontSize=17;fontColor=#666666;align=left;" parent="9U3OsyRfPfuhPDxdt06z-1" vertex="1">
          <mxGeometry x="130" y="60" width="250" height="26" as="geometry" />
        </mxCell>
        <mxCell id="9U3OsyRfPfuhPDxdt06z-4" value="Plush Phone" style="html=1;shadow=0;dashed=0;fillColor=#F8F9FA;strokeColor=none;fontSize=16;fontColor=#181819;align=left;spacing=15;" parent="9U3OsyRfPfuhPDxdt06z-1" vertex="1">
          <mxGeometry x="30" y="120" width="670" height="60" as="geometry" />
        </mxCell>
        <mxCell id="9U3OsyRfPfuhPDxdt06z-5" value="Home" style="fillColor=none;strokeColor=none;fontSize=14;fontColor=#181819;align=center;" parent="9U3OsyRfPfuhPDxdt06z-4" vertex="1">
          <mxGeometry width="50" height="40" relative="1" as="geometry">
            <mxPoint x="140" y="10" as="offset" />
          </mxGeometry>
        </mxCell>
        <mxCell id="9U3OsyRfPfuhPDxdt06z-6" value="Link" style="fillColor=none;strokeColor=none;fontSize=14;fontColor=#7C7C7D;align=center;" parent="9U3OsyRfPfuhPDxdt06z-4" vertex="1">
          <mxGeometry width="50" height="40" relative="1" as="geometry">
            <mxPoint x="200" y="10" as="offset" />
          </mxGeometry>
        </mxCell>
        <mxCell id="9U3OsyRfPfuhPDxdt06z-13" value="Link" style="fillColor=none;strokeColor=none;fontSize=14;fontColor=#7C7C7D;align=center;" parent="9U3OsyRfPfuhPDxdt06z-4" vertex="1">
          <mxGeometry x="270" y="10" width="50" height="40" as="geometry" />
        </mxCell>
        <mxCell id="9U3OsyRfPfuhPDxdt06z-14" value="Link" style="fillColor=none;strokeColor=none;fontSize=14;fontColor=#7C7C7D;align=center;" parent="9U3OsyRfPfuhPDxdt06z-4" vertex="1">
          <mxGeometry x="330" y="10" width="50" height="40" as="geometry" />
        </mxCell>
        <mxCell id="Ot4EPW7effn4mMnYDBAe-8" value="" style="rounded=0;whiteSpace=wrap;html=1;" vertex="1" parent="9U3OsyRfPfuhPDxdt06z-1">
          <mxGeometry x="50" y="860" width="160" height="260" as="geometry" />
        </mxCell>
        <mxCell id="Ot4EPW7effn4mMnYDBAe-9" value="Flagship phone kep" style="html=1;shadow=0;dashed=0;strokeColor=none;strokeWidth=1;fillColor=#777777;fontColor=#555555;whiteSpace=wrap;align=center;verticalAlign=middle;fontStyle=0;fontSize=40;" vertex="1" parent="9U3OsyRfPfuhPDxdt06z-1">
          <mxGeometry x="20" y="190" width="800" height="300" as="geometry" />
        </mxCell>
        <mxCell id="Ot4EPW7effn4mMnYDBAe-10" value="" style="html=1;verticalLabelPosition=bottom;labelBackgroundColor=#ffffff;verticalAlign=top;shadow=0;dashed=0;strokeWidth=4;shape=mxgraph.ios7.misc.more;strokeColor=#a0a0a0;" vertex="1" parent="Ot4EPW7effn4mMnYDBAe-9">
          <mxGeometry x="1" y="0.5" width="7" height="14" relative="1" as="geometry">
            <mxPoint x="-50" y="-7" as="offset" />
          </mxGeometry>
        </mxCell>
        <mxCell id="Ot4EPW7effn4mMnYDBAe-11" value="" style="flipH=1;html=1;verticalLabelPosition=bottom;labelBackgroundColor=#ffffff;verticalAlign=top;shadow=0;dashed=0;strokeWidth=4;shape=mxgraph.ios7.misc.more;strokeColor=#a0a0a0;" vertex="1" parent="Ot4EPW7effn4mMnYDBAe-9">
          <mxGeometry y="0.5" width="7" height="14" relative="1" as="geometry">
            <mxPoint x="43" y="-7" as="offset" />
          </mxGeometry>
        </mxCell>
        <mxCell id="Ot4EPW7effn4mMnYDBAe-12" value="" style="html=1;shadow=0;strokeColor=none;fillColor=#ffffff;" vertex="1" parent="Ot4EPW7effn4mMnYDBAe-9">
          <mxGeometry x="0.5" y="1" width="30" height="4" relative="1" as="geometry">
            <mxPoint x="-50" y="-20" as="offset" />
          </mxGeometry>
        </mxCell>
        <mxCell id="Ot4EPW7effn4mMnYDBAe-13" value="" style="html=1;shadow=0;strokeColor=none;fillColor=#BBBBBB;" vertex="1" parent="Ot4EPW7effn4mMnYDBAe-9">
          <mxGeometry x="0.5" y="1" width="30" height="4" relative="1" as="geometry">
            <mxPoint x="-15" y="-20" as="offset" />
          </mxGeometry>
        </mxCell>
        <mxCell id="Ot4EPW7effn4mMnYDBAe-14" value="" style="html=1;shadow=0;strokeColor=none;fillColor=#BBBBBB;" vertex="1" parent="Ot4EPW7effn4mMnYDBAe-9">
          <mxGeometry x="0.5" y="1" width="30" height="4" relative="1" as="geometry">
            <mxPoint x="20" y="-20" as="offset" />
          </mxGeometry>
        </mxCell>
        <mxCell id="Ot4EPW7effn4mMnYDBAe-15" value="&lt;font style=&quot;font-size: 16px&quot;&gt;&lt;b&gt;Flagship phone neve&lt;/b&gt;&lt;/font&gt;&lt;br style=&quot;font-size: 14px&quot;&gt;&lt;br style=&quot;font-size: 14px&quot;&gt;Flagship phone tagline" style="html=1;shadow=0;strokeColor=none;fillColor=none;resizeWidth=1;fontColor=#FFFFFF;fontSize=14;" vertex="1" parent="Ot4EPW7effn4mMnYDBAe-9">
          <mxGeometry y="1" width="800" height="60" relative="1" as="geometry">
            <mxPoint y="-90" as="offset" />
          </mxGeometry>
        </mxCell>
        <mxCell id="Ot4EPW7effn4mMnYDBAe-16" value="" style="sketch=0;html=1;aspect=fixed;strokeColor=none;shadow=0;fillColor=#3B8DF1;verticalAlign=top;labelPosition=center;verticalLabelPosition=bottom;shape=mxgraph.gcp2.phone_android" vertex="1" parent="9U3OsyRfPfuhPDxdt06z-1">
          <mxGeometry x="115" y="886" width="30" height="53.57" as="geometry" />
        </mxCell>
        <mxCell id="Ot4EPW7effn4mMnYDBAe-17" value="Telefon neve" style="text;html=1;align=center;verticalAlign=middle;whiteSpace=wrap;rounded=0;fontStyle=1" vertex="1" parent="9U3OsyRfPfuhPDxdt06z-1">
          <mxGeometry x="87.5" y="950" width="75" height="10" as="geometry" />
        </mxCell>
        <mxCell id="Ot4EPW7effn4mMnYDBAe-18" value="Tagline" style="text;html=1;align=center;verticalAlign=middle;whiteSpace=wrap;rounded=0;" vertex="1" parent="9U3OsyRfPfuhPDxdt06z-1">
          <mxGeometry x="92.5" y="970" width="75" height="10" as="geometry" />
        </mxCell>
        <mxCell id="Ot4EPW7effn4mMnYDBAe-19" value="399$" style="text;html=1;align=center;verticalAlign=middle;whiteSpace=wrap;rounded=0;" vertex="1" parent="9U3OsyRfPfuhPDxdt06z-1">
          <mxGeometry x="70" y="1000" width="75" height="10" as="geometry" />
        </mxCell>
        <mxCell id="Ot4EPW7effn4mMnYDBAe-24" value="Buy now" style="rounded=1;fillColor=#0057D8;strokeColor=none;html=1;whiteSpace=wrap;fontColor=#ffffff;align=center;verticalAlign=middle;fontStyle=0;fontSize=12;sketch=0;" vertex="1" parent="9U3OsyRfPfuhPDxdt06z-1">
          <mxGeometry x="132" y="993.5" width="68" height="23" as="geometry" />
        </mxCell>
        <mxCell id="Ot4EPW7effn4mMnYDBAe-25" value="" style="rounded=0;whiteSpace=wrap;html=1;" vertex="1" parent="9U3OsyRfPfuhPDxdt06z-1">
          <mxGeometry x="70" y="1040" width="120" height="60" as="geometry" />
        </mxCell>
        <mxCell id="Ot4EPW7effn4mMnYDBAe-26" value="Jellemzok tablazat" style="text;html=1;align=center;verticalAlign=middle;whiteSpace=wrap;rounded=0;" vertex="1" parent="9U3OsyRfPfuhPDxdt06z-1">
          <mxGeometry x="100" y="1060" width="50" height="20" as="geometry" />
        </mxCell>
        <mxCell id="Ot4EPW7effn4mMnYDBAe-35" value="" style="rounded=0;whiteSpace=wrap;html=1;" vertex="1" parent="9U3OsyRfPfuhPDxdt06z-1">
          <mxGeometry x="350" y="860" width="160" height="260" as="geometry" />
        </mxCell>
        <mxCell id="Ot4EPW7effn4mMnYDBAe-36" value="" style="sketch=0;html=1;aspect=fixed;strokeColor=none;shadow=0;fillColor=#3B8DF1;verticalAlign=top;labelPosition=center;verticalLabelPosition=bottom;shape=mxgraph.gcp2.phone_android" vertex="1" parent="9U3OsyRfPfuhPDxdt06z-1">
          <mxGeometry x="415" y="886" width="30" height="53.57" as="geometry" />
        </mxCell>
        <mxCell id="Ot4EPW7effn4mMnYDBAe-37" value="Telefon neve" style="text;html=1;align=center;verticalAlign=middle;whiteSpace=wrap;rounded=0;fontStyle=1" vertex="1" parent="9U3OsyRfPfuhPDxdt06z-1">
          <mxGeometry x="387.5" y="950" width="75" height="10" as="geometry" />
        </mxCell>
        <mxCell id="Ot4EPW7effn4mMnYDBAe-38" value="Tagline" style="text;html=1;align=center;verticalAlign=middle;whiteSpace=wrap;rounded=0;" vertex="1" parent="9U3OsyRfPfuhPDxdt06z-1">
          <mxGeometry x="392.5" y="970" width="75" height="10" as="geometry" />
        </mxCell>
        <mxCell id="Ot4EPW7effn4mMnYDBAe-39" value="399$" style="text;html=1;align=center;verticalAlign=middle;whiteSpace=wrap;rounded=0;" vertex="1" parent="9U3OsyRfPfuhPDxdt06z-1">
          <mxGeometry x="370" y="1000" width="75" height="10" as="geometry" />
        </mxCell>
        <mxCell id="Ot4EPW7effn4mMnYDBAe-40" value="Buy now" style="rounded=1;fillColor=#0057D8;strokeColor=none;html=1;whiteSpace=wrap;fontColor=#ffffff;align=center;verticalAlign=middle;fontStyle=0;fontSize=12;sketch=0;" vertex="1" parent="9U3OsyRfPfuhPDxdt06z-1">
          <mxGeometry x="432" y="993.5" width="68" height="23" as="geometry" />
        </mxCell>
        <mxCell id="Ot4EPW7effn4mMnYDBAe-41" value="" style="rounded=0;whiteSpace=wrap;html=1;" vertex="1" parent="9U3OsyRfPfuhPDxdt06z-1">
          <mxGeometry x="370" y="1040" width="120" height="60" as="geometry" />
        </mxCell>
        <mxCell id="Ot4EPW7effn4mMnYDBAe-42" value="Jellemzok tablazat" style="text;html=1;align=center;verticalAlign=middle;whiteSpace=wrap;rounded=0;" vertex="1" parent="9U3OsyRfPfuhPDxdt06z-1">
          <mxGeometry x="400" y="1060" width="50" height="20" as="geometry" />
        </mxCell>
        <mxCell id="Ot4EPW7effn4mMnYDBAe-61" value="" style="rounded=0;whiteSpace=wrap;html=1;" vertex="1" parent="9U3OsyRfPfuhPDxdt06z-1">
          <mxGeometry x="640" y="860" width="160" height="270" as="geometry" />
        </mxCell>
        <mxCell id="Ot4EPW7effn4mMnYDBAe-62" value="" style="sketch=0;html=1;aspect=fixed;strokeColor=none;shadow=0;fillColor=#3B8DF1;verticalAlign=top;labelPosition=center;verticalLabelPosition=bottom;shape=mxgraph.gcp2.phone_android" vertex="1" parent="9U3OsyRfPfuhPDxdt06z-1">
          <mxGeometry x="700" y="890" width="30" height="53.57" as="geometry" />
        </mxCell>
        <mxCell id="Ot4EPW7effn4mMnYDBAe-63" value="Telefon neve" style="text;html=1;align=center;verticalAlign=middle;whiteSpace=wrap;rounded=0;fontStyle=1" vertex="1" parent="9U3OsyRfPfuhPDxdt06z-1">
          <mxGeometry x="677.5" y="960" width="75" height="10" as="geometry" />
        </mxCell>
        <mxCell id="Ot4EPW7effn4mMnYDBAe-64" value="Tagline" style="text;html=1;align=center;verticalAlign=middle;whiteSpace=wrap;rounded=0;" vertex="1" parent="9U3OsyRfPfuhPDxdt06z-1">
          <mxGeometry x="682.5" y="980" width="75" height="10" as="geometry" />
        </mxCell>
        <mxCell id="Ot4EPW7effn4mMnYDBAe-65" value="399$" style="text;html=1;align=center;verticalAlign=middle;whiteSpace=wrap;rounded=0;" vertex="1" parent="9U3OsyRfPfuhPDxdt06z-1">
          <mxGeometry x="660" y="1010" width="75" height="10" as="geometry" />
        </mxCell>
        <mxCell id="Ot4EPW7effn4mMnYDBAe-66" value="Buy now" style="rounded=1;fillColor=#0057D8;strokeColor=none;html=1;whiteSpace=wrap;fontColor=#ffffff;align=center;verticalAlign=middle;fontStyle=0;fontSize=12;sketch=0;" vertex="1" parent="9U3OsyRfPfuhPDxdt06z-1">
          <mxGeometry x="722" y="1003.5" width="68" height="23" as="geometry" />
        </mxCell>
        <mxCell id="Ot4EPW7effn4mMnYDBAe-67" value="" style="rounded=0;whiteSpace=wrap;html=1;" vertex="1" parent="9U3OsyRfPfuhPDxdt06z-1">
          <mxGeometry x="660" y="1050" width="120" height="60" as="geometry" />
        </mxCell>
        <mxCell id="Ot4EPW7effn4mMnYDBAe-68" value="Jellemzok tablazat" style="text;html=1;align=center;verticalAlign=middle;whiteSpace=wrap;rounded=0;" vertex="1" parent="9U3OsyRfPfuhPDxdt06z-1">
          <mxGeometry x="690" y="1070" width="50" height="20" as="geometry" />
        </mxCell>
        <mxCell id="Ot4EPW7effn4mMnYDBAe-71" value="" style="rounded=0;whiteSpace=wrap;html=1;" vertex="1" parent="9U3OsyRfPfuhPDxdt06z-1">
          <mxGeometry x="55" y="565" width="120" height="180" as="geometry" />
        </mxCell>
        <mxCell id="Ot4EPW7effn4mMnYDBAe-73" value="Jellemzo neve" style="text;html=1;align=center;verticalAlign=middle;whiteSpace=wrap;rounded=0;" vertex="1" parent="9U3OsyRfPfuhPDxdt06z-1">
          <mxGeometry x="77.5" y="635" width="65" height="30" as="geometry" />
        </mxCell>
        <mxCell id="Ot4EPW7effn4mMnYDBAe-75" value="Jellemzo leirasa" style="text;html=1;align=center;verticalAlign=middle;whiteSpace=wrap;rounded=0;" vertex="1" parent="9U3OsyRfPfuhPDxdt06z-1">
          <mxGeometry x="76" y="675" width="68" height="40" as="geometry" />
        </mxCell>
        <mxCell id="Ot4EPW7effn4mMnYDBAe-76" value="" style="rounded=0;whiteSpace=wrap;html=1;" vertex="1" parent="9U3OsyRfPfuhPDxdt06z-1">
          <mxGeometry x="210" y="565" width="120" height="180" as="geometry" />
        </mxCell>
        <mxCell id="Ot4EPW7effn4mMnYDBAe-77" value="Jellemzo neve" style="text;html=1;align=center;verticalAlign=middle;whiteSpace=wrap;rounded=0;" vertex="1" parent="9U3OsyRfPfuhPDxdt06z-1">
          <mxGeometry x="232.5" y="635" width="65" height="30" as="geometry" />
        </mxCell>
        <mxCell id="Ot4EPW7effn4mMnYDBAe-78" value="Jellemzo leirasa" style="text;html=1;align=center;verticalAlign=middle;whiteSpace=wrap;rounded=0;" vertex="1" parent="9U3OsyRfPfuhPDxdt06z-1">
          <mxGeometry x="231" y="675" width="68" height="40" as="geometry" />
        </mxCell>
        <mxCell id="Ot4EPW7effn4mMnYDBAe-79" value="" style="rounded=0;whiteSpace=wrap;html=1;" vertex="1" parent="9U3OsyRfPfuhPDxdt06z-1">
          <mxGeometry x="355" y="565" width="120" height="180" as="geometry" />
        </mxCell>
        <mxCell id="Ot4EPW7effn4mMnYDBAe-80" value="Jellemzo neve" style="text;html=1;align=center;verticalAlign=middle;whiteSpace=wrap;rounded=0;" vertex="1" parent="9U3OsyRfPfuhPDxdt06z-1">
          <mxGeometry x="382.5" y="630" width="65" height="30" as="geometry" />
        </mxCell>
        <mxCell id="Ot4EPW7effn4mMnYDBAe-81" value="Jellemzo leirasa" style="text;html=1;align=center;verticalAlign=middle;whiteSpace=wrap;rounded=0;" vertex="1" parent="9U3OsyRfPfuhPDxdt06z-1">
          <mxGeometry x="385" y="675" width="68" height="40" as="geometry" />
        </mxCell>
        <mxCell id="Ot4EPW7effn4mMnYDBAe-82" value="" style="rounded=0;whiteSpace=wrap;html=1;" vertex="1" parent="9U3OsyRfPfuhPDxdt06z-1">
          <mxGeometry x="685" y="560" width="120" height="180" as="geometry" />
        </mxCell>
        <mxCell id="Ot4EPW7effn4mMnYDBAe-83" value="Jellemzo neve" style="text;html=1;align=center;verticalAlign=middle;whiteSpace=wrap;rounded=0;" vertex="1" parent="9U3OsyRfPfuhPDxdt06z-1">
          <mxGeometry x="712.5" y="630" width="65" height="30" as="geometry" />
        </mxCell>
        <mxCell id="Ot4EPW7effn4mMnYDBAe-84" value="Jellemzo leirasa" style="text;html=1;align=center;verticalAlign=middle;whiteSpace=wrap;rounded=0;" vertex="1" parent="9U3OsyRfPfuhPDxdt06z-1">
          <mxGeometry x="712.5" y="675" width="68" height="40" as="geometry" />
        </mxCell>
        <mxCell id="Ot4EPW7effn4mMnYDBAe-85" value="" style="rounded=0;whiteSpace=wrap;html=1;" vertex="1" parent="9U3OsyRfPfuhPDxdt06z-1">
          <mxGeometry x="515" y="565" width="120" height="180" as="geometry" />
        </mxCell>
        <mxCell id="Ot4EPW7effn4mMnYDBAe-86" value="Jellemzo neve" style="text;html=1;align=center;verticalAlign=middle;whiteSpace=wrap;rounded=0;" vertex="1" parent="9U3OsyRfPfuhPDxdt06z-1">
          <mxGeometry x="537.5" y="635" width="65" height="30" as="geometry" />
        </mxCell>
        <mxCell id="Ot4EPW7effn4mMnYDBAe-87" value="Jellemzo leirasa" style="text;html=1;align=center;verticalAlign=middle;whiteSpace=wrap;rounded=0;" vertex="1" parent="9U3OsyRfPfuhPDxdt06z-1">
          <mxGeometry x="536" y="675" width="68" height="40" as="geometry" />
        </mxCell>
        <mxCell id="Ot4EPW7effn4mMnYDBAe-89" value="" style="rounded=0;whiteSpace=wrap;html=1;" vertex="1" parent="9U3OsyRfPfuhPDxdt06z-1">
          <mxGeometry x="35" y="1160" width="780" height="390" as="geometry" />
        </mxCell>
        <mxCell id="Ot4EPW7effn4mMnYDBAe-90" style="edgeStyle=orthogonalEdgeStyle;rounded=0;orthogonalLoop=1;jettySize=auto;html=1;exitX=0.5;exitY=1;exitDx=0;exitDy=0;" edge="1" parent="9U3OsyRfPfuhPDxdt06z-1" source="Ot4EPW7effn4mMnYDBAe-89" target="Ot4EPW7effn4mMnYDBAe-89">
          <mxGeometry relative="1" as="geometry" />
        </mxCell>
        <mxCell id="Ot4EPW7effn4mMnYDBAe-91" value="Vasarlasra valo felszolitas kep szoveg buy now button&lt;div&gt;&lt;br&gt;&lt;/div&gt;" style="text;html=1;align=center;verticalAlign=middle;whiteSpace=wrap;rounded=0;" vertex="1" parent="9U3OsyRfPfuhPDxdt06z-1">
          <mxGeometry x="310" y="1320" width="260" height="70" as="geometry" />
        </mxCell>
        <mxCell id="Ot4EPW7effn4mMnYDBAe-92" value="" style="shape=rect;fillColor=#ffffff;strokeColor=#eeeeee;shadow=0;" vertex="1" parent="9U3OsyRfPfuhPDxdt06z-1">
          <mxGeometry x="290" y="1580" width="300" height="40" as="geometry" />
        </mxCell>
        <mxCell id="Ot4EPW7effn4mMnYDBAe-93" value="Link" style="shape=rect;strokeColor=none;fillColor=none;fontSize=12;fontColor=#2196F3;dashed=0;whiteSpace=wrap;html=1;" vertex="1" parent="Ot4EPW7effn4mMnYDBAe-92">
          <mxGeometry width="75" height="40" as="geometry" />
        </mxCell>
        <mxCell id="Ot4EPW7effn4mMnYDBAe-94" value="Link" style="shape=rect;strokeColor=none;fillColor=none;fontSize=12;fontColor=#2196F3;dashed=0;whiteSpace=wrap;html=1;" vertex="1" parent="Ot4EPW7effn4mMnYDBAe-92">
          <mxGeometry x="75" width="75" height="40" as="geometry" />
        </mxCell>
        <mxCell id="Ot4EPW7effn4mMnYDBAe-95" value="lLink" style="shape=rect;strokeColor=none;fillColor=none;fontSize=12;fontColor=#2196F3;dashed=0;whiteSpace=wrap;html=1;" vertex="1" parent="Ot4EPW7effn4mMnYDBAe-92">
          <mxGeometry x="150" width="75" height="40" as="geometry" />
        </mxCell>
        <mxCell id="Ot4EPW7effn4mMnYDBAe-96" value="Link" style="shape=rect;strokeColor=none;fillColor=none;fontSize=12;fontColor=#2196F3;dashed=0;whiteSpace=wrap;html=1;" vertex="1" parent="Ot4EPW7effn4mMnYDBAe-92">
          <mxGeometry x="225" width="75" height="40" as="geometry" />
        </mxCell>
      </root>
    </mxGraphModel>
  </diagram>
</mxfile>
